# xmcd
#
# Track frame offsets: 
#        150
#        9695
#        25713
#        52232
#        64979
#        80792
#        107421
#        130020
#        147433
#        180503
#        194039
#        205260
#        221305
#
# Disc length: 3522 seconds
#
# Revision: 1
# Processed by: cddbd v1.5.2PL0 Copyright (c) Steve Scherf et al.
# Submitted via: ExactAudioCopy v0.99pb5
#
DISCID=c00dc00d
DTITLE=Circular - Substans
DYEAR=2009
DGENRE=Ambient
TTITLE0=Intro
TTITLE1=Rablekok
TTITLE2=Little Girls Eat Chocolate
TTITLE3=Time Machine
TTITLE4=Bits (Chernozem Remix)
TTITLE5=Wie Geht's, Minsk?
TTITLE6=Hurumburum
TTITLE7=Bathing Is A Ritual
TTITLE8=Planet Zodiac
TTITLE9=Walking On Sand
TTITLE10=I'm Not Scared
TTITLE11=Isroser
TTITLE12=Nothing But Dead Landscape
EXTD=
EXTT0=
EXTT1=
EXTT2=
EXTT3=
EXTT4=
EXTT5=
EXTT6=
EXTT7=
EXTT8=
EXTT9=
EXTT10=
EXTT11=
EXTT12=
PLAYORDER=
